<svg xmlns="http://www.w3.org/2000/svg" viewBox="0 0 360 80" fill="none">
  <!-- Brain icon -->
  <g transform="translate(10, 8)">
    <path d="M32 6C22 6 14 14 14 24c-6 2-10 8-10 15 0 8 6 15 14 16v1c0 4 4 8 8 8h12c4 0 8-4 8-8v-1c8-1 14-8 14-16 0-7-4-13-10-15C50 14 42 6 32 6z" fill="none" stroke="#1a1a2e" stroke-width="3" stroke-linecap="round" stroke-linejoin="round"/>
    <path d="M32 20v28M24 28l8 8 8-8M24 40l8-8 8 8" stroke="#6c5ce7" stroke-width="2.5" stroke-linecap="round" stroke-linejoin="round"/>
    <circle cx="32" cy="16" r="3" fill="#6c5ce7"/>
  </g>
  <!-- Text -->
  <text x="80" y="54" font-family="ui-monospace, SFMono-Regular, 'SF Mono', Menlo, Consolas, monospace" font-size="42" font-weight="700" fill="#1a1a2e">.cortex</text>
</svg>
